<svg xmlns="http://www.w3.org/2000/svg" width="256" height="256"><path fill-opacity=".016" d="M0 128.004v128.004l128.25-.254 128.25-.254.254-127.75L257.008 0H0v128.004m.485.496c0 70.4.119 99.053.265 63.672.146-35.38.146-92.98 0-128C.604 29.153.485 58.1.485 128.5" fill="#1976D2" fill-rule="evenodd"/><path fill-opacity=".366" d="M80.096 8.265c-1.322.679-3.235 2.36-4.253 3.735-1.017 1.375-18.546 51.971-38.953 112.436C-2.687 241.7-1.931 239.055 2.665 244.216 6.645 248.685 9.197 249 41.403 249c19.153 0 31.512-.396 33.282-1.067 5.733-2.172 7.042-4.609 14.403-26.823 3.939-11.886 7.506-21.988 7.926-22.449.421-.462 12.402 10.055 26.625 23.37 14.224 13.316 27.309 24.831 29.079 25.59 2.575 1.103 12.123 1.379 47.782 1.379 50.014 0 49.543.06 53.939-6.904 2.39-3.786 3.701-11.919 1.724-10.697-.46.285-17.372-48.401-37.582-108.191-20.21-59.789-37.418-109.758-38.241-111.042-3.207-5.003-4.9-5.167-53.058-5.151-33.552.011-45.385.324-47.186 1.25m45.925 103.991C121.433 125.528 109 162.352 109 162.668c0 .182 8.55.332 19 .332s19-.393 19-.873-4.235-13.302-9.41-28.494l-9.41-27.622-2.159 6.245M.272 236c0 2.475.195 3.488.434 2.25.238-1.238.238-3.262 0-4.5-.239-1.238-.434-.225-.434 2.25" fill="#1976D2" fill-rule="evenodd"/><path fill-opacity=".114" d="M80.325 8.459c-1.746.76-3.834 2.429-4.641 3.711C73.931 14.953 0 234.113 0 236.526c0 3.907 3.4 8.751 7.424 10.579 3.677 1.67 7.014 1.851 34.076 1.851 27.3 0 30.375-.17 34.169-1.893 2.293-1.041 4.723-2.926 5.398-4.189.676-1.263 4.425-11.872 8.331-23.577 3.906-11.704 7.479-21.327 7.94-21.383.461-.057 12.334 10.627 26.385 23.742 14.051 13.114 26.557 24.392 27.79 25.062 3.084 1.675 4.332 1.709 53.202 1.483L247.93 248l3.535-3.104c1.944-1.707 3.535-3.957 3.535-5 0-1.043.45-1.896 1-1.896s.964-1.463.921-3.25c-.043-1.787-.335-2.601-.648-1.807-.312.794-6.586-16.306-13.94-38-7.354-21.694-13.659-40.118-14.011-40.943-.352-.825-.568-1.838-.481-2.25.088-.412-.339-.75-.948-.75s-.859-.646-.556-1.435c.303-.79.217-1.577-.191-1.75-.409-.173-2.464-5.265-4.567-11.315-5.601-16.109-7.398-19.786-9.399-19.231-1.335.37-60.519 22.538-67.424 25.254-.96.378-1.542 1.015-1.294 1.416s.722 2.266 1.053 4.145c.331 1.879 1.475 6.078 2.543 9.331 1.068 3.253 1.942 6.032 1.942 6.174 0 .142-9 .309-20 .369-15.665.087-20.005-.168-20.022-1.174-.012-.706 4.332-14.115 9.654-29.797l9.676-28.512-15.279-44.988c-8.403-24.743-15.701-45.799-16.217-46.791-1.396-2.678-6.895-5.693-10.312-5.653-1.65.019-4.429.657-6.175 1.416M210 114.138c0 .592-.698.808-1.552.48-1.006-.386-1.303-.192-.844.551.482.78.019.966-1.449.582-1.396-.365-1.923-.185-1.492.512.421.681.054.842-.999.438-.916-.351-1.664-.155-1.664.437s-.698.808-1.552.48c-1.006-.386-1.303-.192-.844.551.482.78.019.966-1.449.582-1.396-.365-1.923-.185-1.492.512.421.681.054.842-.999.438-.916-.351-1.664-.155-1.664.437s-.698.808-1.552.48c-1.006-.386-1.303-.192-.844.551.482.78.019.966-1.449.582-1.396-.365-1.923-.185-1.492.512.421.681.054.842-.999.438-.916-.351-1.664-.155-1.664.437s-.698.808-1.552.48c-1.006-.386-1.303-.192-.844.551.482.78.019.966-1.449.582-1.396-.365-1.923-.185-1.492.512.421.681.054.842-.999.438-.916-.351-1.664-.155-1.664.437s-.698.808-1.552.48c-1.006-.386-1.303-.192-.844.551.482.78.019.966-1.449.582-1.396-.365-1.923-.185-1.492.512.421.681.054.842-.999.438-.916-.351-1.664-.155-1.664.437s-.698.808-1.552.48c-1.006-.386-1.303-.192-.844.551.482.78.019.966-1.449.582-1.396-.365-1.923-.185-1.492.512.421.681.054.842-.999.438-.916-.351-1.664-.155-1.664.437s-.698.808-1.552.48c-1.006-.386-1.303-.192-.844.551.482.78.019.966-1.449.582-1.396-.365-1.923-.185-1.492.512.421.681.054.842-.999.438-.916-.351-1.664-.155-1.664.437s-.698.808-1.552.48c-1.006-.386-1.303-.192-.844.551.482.78.019.966-1.449.582-1.396-.365-1.923-.185-1.492.512.421.681.054.842-.999.438-.916-.351-1.664-.155-1.664.437s-.583.852-1.295.579c-.757-.291-1.355.289-1.438 1.393-.079 1.039.306 1.89.854 1.89s.672-.526.274-1.17c-.491-.794-.171-.958.993-.511 1.111.426 1.477.272 1.039-.438-.458-.74.052-.864 1.573-.381 1.635.519 2.045.382 1.5-.5-.545-.882-.135-1.019 1.5-.5 1.686.535 2.053.394 1.461-.563-.566-.916-.304-1.091.927-.618 1.111.426 1.477.272 1.039-.438-.458-.74.052-.864 1.573-.381 1.635.519 2.045.382 1.5-.5-.545-.882-.135-1.019 1.5-.5 1.686.535 2.053.394 1.461-.563-.566-.916-.304-1.091.927-.618 1.111.426 1.477.272 1.039-.438-.458-.74.052-.864 1.573-.381 1.635.519 2.045.382 1.5-.5-.545-.882-.135-1.019 1.5-.5 1.686.535 2.053.394 1.461-.563-.566-.916-.304-1.091.927-.618 1.111.426 1.477.272 1.039-.438-.458-.74.052-.864 1.573-.381 1.635.519 2.045.382 1.5-.5-.533-.862-.165-1.029 1.269-.573 1.17.371 2.595.067 3.385-.723.75-.751 1.985-1.158 2.744-.905.925.309 1.116.032.577-.839-.577-.934-.334-1.12.861-.661 2.129.817 4.843-.2 4.033-1.511-.389-.629.218-.736 1.631-.288 1.686.535 2.053.394 1.461-.563-.561-.908-.308-1.092.875-.638.915.351 1.664.216 1.664-.299s.749-.65 1.664-.299c1.183.454 1.436.27.875-.638-.592-.957-.225-1.098 1.461-.563 1.686.535 2.053.394 1.461-.563-.561-.908-.308-1.092.875-.638 2.129.817 4.843-.2 4.033-1.511-.389-.629.218-.736 1.631-.288 1.686.535 2.053.394 1.461-.563-.561-.908-.308-1.092.875-.638 2.177.835 4.836-.212 3.994-1.574-.413-.668-.038-.827 1.006-.426.915.351 1.664.25 1.664-.223 0-.474-.675-1.121-1.5-1.438-.825-.316-1.5-.091-1.5.5M.232 236c0 1.925.206 2.713.457 1.75.252-.963.252-2.537 0-3.5-.251-.963-.457-.175-.457 1.75" fill="#1976D2" fill-rule="evenodd"/><path fill-opacity=".404" d="M80.406 8.869c-3.192 1.476-4.479 2.856-5.842 6.262C69.292 28.305.668 234.02.637 236.744c-.042 3.645 2.849 8.125 6.459 10.012 1.819.951 10.489 1.194 35.636 1l33.232-.256 2.879-3c2.189-2.281 4.607-8.15 10.093-24.5 3.967-11.825 7.562-21.86 7.988-22.299.426-.44 12.637 10.294 27.135 23.854 14.498 13.56 27.42 25.057 28.716 25.549 1.295.493 4.335.896 6.755.896 3.466 0 5.128-.639 7.825-3.007 6.505-5.711 7.138-2.974-17.057-73.743l-2.479-7.25H127.91c-10.951 0-19.91-.176-19.91-.391 0-.215 4.484-13.493 9.965-29.506l9.965-29.115-14.544-43.244C97.938 15.808 96.152 11.181 93.151 9.318c-3.648-2.262-8.457-2.432-12.745-.449" fill="#1976D2" fill-rule="evenodd"/></svg>